<?xml version="1.0" standalone="no"?>
<!DOCTYPE svg PUBLIC "-//W3C//DTD SVG 20010904//EN"
 "http://www.w3.org/TR/2001/REC-SVG-20010904/DTD/svg10.dtd">
<svg version="1.0" xmlns="http://www.w3.org/2000/svg"
 width="512.000000pt" height="512.000000pt" viewBox="0 0 512.000000 512.000000"
 preserveAspectRatio="xMidYMid meet">
<metadata>
Created by potrace 1.11, written by Peter Selinger 2001-2013
</metadata>
<g transform="translate(0.000000,512.000000) scale(0.100000,-0.100000)"
fill="#000000" stroke="none">
<path d="M2306 4678 c-801 -91 -1503 -662 -1766 -1436 -179 -529 -141 -1115
104 -1617 110 -223 228 -388 410 -571 183 -182 348 -300 571 -410 589 -287
1281 -287 1870 0 223 110 388 228 571 410 182 183 300 348 410 571 287 589
287 1281 0 1870 -172 351 -431 642 -771 865 -246 161 -600 286 -907 319 -114
13 -379 12 -492 -1z m393 -418 c530 -47 987 -317 1282 -758 250 -374 342 -846
249 -1289 -139 -664 -659 -1184 -1323 -1323 -443 -93 -915 -1 -1289 249 -584
391 -870 1086 -728 1768 139 665 659 1184 1326 1324 170 35 313 44 483 29z"/>
<path d="M1693 3389 c-68 -26 -137 -94 -171 -167 -95 -206 63 -446 293 -446
219 0 366 210 298 425 -24 76 -116 168 -192 192 -71 23 -163 21 -228 -4z"/>
<path d="M3195 3392 c-72 -23 -165 -118 -188 -191 -68 -215 79 -425 298 -425
126 0 230 66 287 182 126 255 -121 525 -397 434z"/>
<path d="M1490 2084 c98 -227 296 -439 525 -561 170 -90 347 -133 545 -133
242 0 456 65 655 200 174 118 328 300 410 485 l24 55 -1089 0 -1089 0 19 -46z"/>
</g>
</svg>
